<?xml version="1.0" encoding="UTF-8"?>
<svg version="1.1" xmlns="http://www.w3.org/2000/svg" width="96" height="96">
<path d="M0 0 C6.03225939 -0.09899561 12.06404427 -0.17152907 18.09692383 -0.21972656 C20.14843993 -0.23982199 22.19989889 -0.26710324 24.2512207 -0.30175781 C27.20278025 -0.35036669 30.15358148 -0.37298952 33.10546875 -0.390625 C34.02023483 -0.41127014 34.93500092 -0.43191528 35.87748718 -0.45318604 C40.11882716 -0.45467516 42.38054048 -0.38502797 46.0559082 1.89941406 C49.13957033 5.23130266 49.1350698 7.1984192 49.17700195 11.65551758 C49.19625481 13.43295097 49.19625481 13.43295097 49.21589661 15.24629211 C49.22328354 16.53271103 49.23067047 17.81912994 49.23828125 19.14453125 C49.246353 20.46160568 49.25442474 21.77868011 49.26274109 23.13566589 C49.27776861 25.92743807 49.28760613 28.71918479 49.29516602 31.51098633 C49.30622376 35.08223304 49.34061556 38.6528555 49.38033772 42.22388172 C49.41281378 45.63490655 49.41728368 49.04586375 49.42578125 52.45703125 C49.44328934 53.73737747 49.46079742 55.01772369 49.47883606 56.33686829 C49.47591049 57.53128036 49.47298492 58.72569244 49.4699707 59.95629883 C49.47583694 61.00505692 49.48170319 62.053815 49.48774719 63.13435364 C48.87596998 66.72870981 47.49834308 68.3953847 45 71 C42.35541621 72.32229189 40.32238699 72.09677194 37.375 72.0625 C36.37210938 72.05347656 35.36921875 72.04445313 34.3359375 72.03515625 C33.56507812 72.02355469 32.79421875 72.01195313 32 72 C31.67 70.35 31.34 68.7 31 67 C32.093125 66.690625 33.18625 66.38125 34.3125 66.0625 C36.55407994 65.41662103 38.7869351 64.7376883 41 64 C42.22310252 60.33069244 42.23126337 56.87679856 42.31640625 53.05078125 C42.33505737 52.36576538 42.3537085 51.68074951 42.3729248 50.97497559 C42.44112075 48.42094577 42.50133438 45.86670785 42.5625 43.3125 C42.706875 37.599375 42.85125 31.88625 43 26 C23.53 26 4.06 26 -16 26 C-17 22 -17 22 -16 20 C3.47 20 22.94 20 43 20 C42.34 16.04 41.68 12.08 41 8 C37.13676662 6.71225554 33.42509463 6.76617207 29.39453125 6.68359375 C28.55532639 6.66281265 27.71612152 6.64203156 26.85148621 6.62062073 C24.17190706 6.55525982 21.49223031 6.49630286 18.8125 6.4375 C16.99543263 6.39430198 15.17837512 6.35068727 13.36132812 6.30664062 C8.90765201 6.1995922 4.45387774 6.09828681 0 6 C0 4.02 0 2.04 0 0 Z " fill="#000000" transform="translate(37,12)"/>
<path d="M0 0 C1.05960938 0.00676758 1.05960938 0.00676758 2.140625 0.01367188 C3.88545275 0.02546125 5.630237 0.04339676 7.375 0.0625 C7.375 2.0425 7.375 4.0225 7.375 6.0625 C3.085 6.7225 -1.205 7.3825 -5.625 8.0625 C-6.60326482 10.99729445 -6.75160743 12.88867152 -6.75439453 15.9453125 C-6.75754669 16.93644043 -6.76069885 17.92756836 -6.76394653 18.94873047 C-6.7619223 20.01752441 -6.75989807 21.08631836 -6.7578125 22.1875 C-6.75924759 23.83516357 -6.75924759 23.83516357 -6.76071167 25.51611328 C-6.76139245 27.83951881 -6.75954525 30.16292624 -6.75537109 32.48632812 C-6.75002145 36.04822043 -6.75531956 39.60998663 -6.76171875 43.171875 C-6.76105795 45.42708361 -6.75977675 47.68229215 -6.7578125 49.9375 C-6.75983673 51.00629395 -6.76186096 52.07508789 -6.76394653 53.17626953 C-6.76079437 54.16739746 -6.75764221 55.15852539 -6.75439453 56.1796875 C-6.75359894 57.05222168 -6.75280334 57.92475586 -6.75198364 58.82373047 C-6.71333692 61.23415101 -6.71333692 61.23415101 -5.625 64.0625 C-1.89079403 65.30723532 1.64865238 65.29459785 5.54296875 65.37890625 C6.33778152 65.39968735 7.1325943 65.42046844 7.95149231 65.44187927 C10.48840763 65.50722087 13.02542573 65.56618808 15.5625 65.625 C17.28321372 65.66819986 19.00391708 65.71181463 20.72460938 65.75585938 C24.94130113 65.86288648 29.1580962 65.96419724 33.375 66.0625 C33.75718767 67.71864657 34.08895102 69.38707024 34.375 71.0625 C32.24026541 73.19723459 27.44215364 72.27583896 24.484375 72.30078125 C23.58761047 72.308853 22.69084595 72.31692474 21.76690674 72.32524109 C19.86366724 72.33910083 17.96040268 72.34981449 16.05712891 72.35766602 C13.15088398 72.37484698 10.24578579 72.41871162 7.33984375 72.46289062 C5.49219588 72.47301997 3.64453832 72.48153531 1.796875 72.48828125 C0.4950528 72.51454338 0.4950528 72.51454338 -0.83306885 72.54133606 C-4.96302145 72.52655169 -7.07674541 72.4069946 -10.65136719 70.16088867 C-13.77436705 66.84047999 -13.75993625 64.87827587 -13.80200195 60.40698242 C-13.82125481 58.62954903 -13.82125481 58.62954903 -13.84089661 56.81620789 C-13.84828354 55.52978897 -13.85567047 54.24337006 -13.86328125 52.91796875 C-13.871353 51.60089432 -13.87942474 50.28381989 -13.88774109 48.92683411 C-13.90276861 46.13506193 -13.91260613 43.34331521 -13.92016602 40.55151367 C-13.93122376 36.98026696 -13.96561556 33.4096445 -14.00533772 29.83861828 C-14.03781378 26.42759345 -14.04228368 23.01663625 -14.05078125 19.60546875 C-14.06828934 18.32512253 -14.08579742 17.04477631 -14.10383606 15.72563171 C-14.10091049 14.53121964 -14.09798492 13.33680756 -14.0949707 12.10620117 C-14.10083694 11.05744308 -14.10670319 10.008685 -14.11274719 8.92814636 C-13.50096998 5.33379019 -12.12334308 3.6671153 -9.625 1.0625 C-6.55966836 -0.47016582 -3.35745728 -0.04026471 0 0 Z " fill="#000000" transform="translate(23.625,11.9375)"/>
<path d="M0 0 C0.721875 0.00257812 1.44375 0.00515625 2.1875 0.0078125 C2.909375 0.00523438 3.63125 0.00265625 4.375 0 C6.1875 0.1328125 6.1875 0.1328125 7.1875 1.1328125 C7.3203125 2.9453125 7.3203125 2.9453125 7.3125 5.1328125 C7.31507812 5.8546875 7.31765625 6.5765625 7.3203125 7.3203125 C7.1875 9.1328125 7.1875 9.1328125 6.1875 10.1328125 C4.375 10.265625 4.375 10.265625 2.1875 10.2578125 C1.465625 10.26039062 0.74375 10.26296875 0 10.265625 C-1.8125 10.1328125 -1.8125 10.1328125 -2.8125 9.1328125 C-2.9453125 7.3203125 -2.9453125 7.3203125 -2.9375 5.1328125 C-2.94007812 4.4109375 -2.94265625 3.6890625 -2.9453125 2.9453125 C-2.7645617 0.47859567 -2.46671683 0.1807508 0 0 Z " fill="#000000" transform="translate(60.8125,59.8671875)"/>
<path d="M0 0 C0.721875 0.00257812 1.44375 0.00515625 2.1875 0.0078125 C2.909375 0.00523438 3.63125 0.00265625 4.375 0 C6.1875 0.1328125 6.1875 0.1328125 7.1875 1.1328125 C7.3203125 2.9453125 7.3203125 2.9453125 7.3125 5.1328125 C7.31507812 5.8546875 7.31765625 6.5765625 7.3203125 7.3203125 C7.1875 9.1328125 7.1875 9.1328125 6.1875 10.1328125 C4.375 10.265625 4.375 10.265625 2.1875 10.2578125 C1.465625 10.26039062 0.74375 10.26296875 0 10.265625 C-1.8125 10.1328125 -1.8125 10.1328125 -2.8125 9.1328125 C-2.9453125 7.3203125 -2.9453125 7.3203125 -2.9375 5.1328125 C-2.94007812 4.4109375 -2.94265625 3.6890625 -2.9453125 2.9453125 C-2.7645617 0.47859567 -2.46671683 0.1807508 0 0 Z " fill="#000000" transform="translate(45.8125,59.8671875)"/>
<path d="M0 0 C0.721875 0.00257812 1.44375 0.00515625 2.1875 0.0078125 C2.909375 0.00523438 3.63125 0.00265625 4.375 0 C6.1875 0.1328125 6.1875 0.1328125 7.1875 1.1328125 C7.3203125 2.9453125 7.3203125 2.9453125 7.3125 5.1328125 C7.31507812 5.8546875 7.31765625 6.5765625 7.3203125 7.3203125 C7.1875 9.1328125 7.1875 9.1328125 6.1875 10.1328125 C4.375 10.265625 4.375 10.265625 2.1875 10.2578125 C1.465625 10.26039062 0.74375 10.26296875 0 10.265625 C-1.8125 10.1328125 -1.8125 10.1328125 -2.8125 9.1328125 C-2.9453125 7.3203125 -2.9453125 7.3203125 -2.9375 5.1328125 C-2.94007812 4.4109375 -2.94265625 3.6890625 -2.9453125 2.9453125 C-2.7645617 0.47859567 -2.46671683 0.1807508 0 0 Z " fill="#000000" transform="translate(30.8125,59.8671875)"/>
<path d="M0 0 C0.721875 0.00257812 1.44375 0.00515625 2.1875 0.0078125 C2.909375 0.00523438 3.63125 0.00265625 4.375 0 C6.1875 0.1328125 6.1875 0.1328125 7.1875 1.1328125 C7.3203125 2.9453125 7.3203125 2.9453125 7.3125 5.1328125 C7.31507812 5.8546875 7.31765625 6.5765625 7.3203125 7.3203125 C7.1875 9.1328125 7.1875 9.1328125 6.1875 10.1328125 C4.375 10.265625 4.375 10.265625 2.1875 10.2578125 C1.465625 10.26039062 0.74375 10.26296875 0 10.265625 C-1.8125 10.1328125 -1.8125 10.1328125 -2.8125 9.1328125 C-2.9453125 7.3203125 -2.9453125 7.3203125 -2.9375 5.1328125 C-2.94007812 4.4109375 -2.94265625 3.6890625 -2.9453125 2.9453125 C-2.7645617 0.47859567 -2.46671683 0.1807508 0 0 Z " fill="#000000" transform="translate(60.8125,45.8671875)"/>
<path d="M0 0 C0.721875 0.00257812 1.44375 0.00515625 2.1875 0.0078125 C2.909375 0.00523438 3.63125 0.00265625 4.375 0 C6.1875 0.1328125 6.1875 0.1328125 7.1875 1.1328125 C7.3203125 2.9453125 7.3203125 2.9453125 7.3125 5.1328125 C7.31507812 5.8546875 7.31765625 6.5765625 7.3203125 7.3203125 C7.1875 9.1328125 7.1875 9.1328125 6.1875 10.1328125 C4.375 10.265625 4.375 10.265625 2.1875 10.2578125 C1.465625 10.26039062 0.74375 10.26296875 0 10.265625 C-1.8125 10.1328125 -1.8125 10.1328125 -2.8125 9.1328125 C-2.9453125 7.3203125 -2.9453125 7.3203125 -2.9375 5.1328125 C-2.94007812 4.4109375 -2.94265625 3.6890625 -2.9453125 2.9453125 C-2.7645617 0.47859567 -2.46671683 0.1807508 0 0 Z " fill="#000000" transform="translate(45.8125,45.8671875)"/>
<path d="M0 0 C0.721875 0.00257812 1.44375 0.00515625 2.1875 0.0078125 C2.909375 0.00523438 3.63125 0.00265625 4.375 0 C6.1875 0.1328125 6.1875 0.1328125 7.1875 1.1328125 C7.3203125 2.9453125 7.3203125 2.9453125 7.3125 5.1328125 C7.31507812 5.8546875 7.31765625 6.5765625 7.3203125 7.3203125 C7.1875 9.1328125 7.1875 9.1328125 6.1875 10.1328125 C4.375 10.265625 4.375 10.265625 2.1875 10.2578125 C1.465625 10.26039062 0.74375 10.26296875 0 10.265625 C-1.8125 10.1328125 -1.8125 10.1328125 -2.8125 9.1328125 C-2.9453125 7.3203125 -2.9453125 7.3203125 -2.9375 5.1328125 C-2.94007812 4.4109375 -2.94265625 3.6890625 -2.9453125 2.9453125 C-2.7645617 0.47859567 -2.46671683 0.1807508 0 0 Z " fill="#000000" transform="translate(30.8125,45.8671875)"/>
<path d="M0 0 C1.98 0 3.96 0 6 0 C6 1.98 6 3.96 6 6 C4.02 6 2.04 6 0 6 C0 4.02 0 2.04 0 0 Z " fill="#000000" transform="translate(70,22)"/>
<path d="M0 0 C1.98 0 3.96 0 6 0 C6 1.98 6 3.96 6 6 C4.02 6 2.04 6 0 6 C0 4.02 0 2.04 0 0 Z " fill="#000000" transform="translate(60,22)"/>
</svg>
